# xmcd CD database file
#
# Track frame offsets:
#	150
#	20930
#	37877
#	53602
#	72096
#	90928
#	112002
#	131990
#	154643
#	177117
#	194190
#
# Disc length: 2921 seconds
#
# Revision: 4
# Processed by: cddbd v1.5.1PL2 Copyright (c) Steve Scherf et al.
# Submitted via: CDex 1.51
#
DISCID=940b670b
DTITLE=浜田省吾 - My First Love
DYEAR=2005
DGENRE=ロック (日本)
TTITLE0=光と影の季節
TTITLE1=この夜に乾杯
TTITLE2=旅立ちの朝
TTITLE3=Thank You
TTITLE4=デスク越しの恋
TTITLE5=誰かどこかで
TTITLE6=I Am A Father
TTITLE7=花火
TTITLE8=初恋
TTITLE9=君と歩いた道
TTITLE10=ある晴れた夏の日の午後
EXTD=YEAR: 2005
EXTT0=
EXTT1=
EXTT2=
EXTT3=
EXTT4=
EXTT5=
EXTT6=
EXTT7=
EXTT8=
EXTT9=
EXTT10=
PLAYORDER=
